<svg width="261" height="156" viewBox="0 0 261 156" fill="none" xmlns="http://www.w3.org/2000/svg">
<path d="M111.916 63.4613C113.116 58.5613 114.216 53.6613 115.416 48.7613C118.716 34.8613 121.916 20.9613 125.216 7.16133C126.216 3.06133 127.116 2.36133 131.316 2.36133C133.716 2.36133 136.116 2.36133 138.516 2.46133C140.416 2.46133 141.616 3.56133 142.116 5.36133C142.916 8.46133 143.616 11.5613 144.416 14.7613C148.316 31.0613 152.116 47.4613 156.016 63.7613C156.016 63.8613 156.116 63.9613 156.216 64.3613L156.616 63.1613C161.416 44.6613 166.216 26.0613 171.016 7.56133C172.216 2.96133 173.016 2.36133 177.816 2.36133H184.016C186.216 2.36133 187.016 3.26133 186.516 5.36133C185.616 9.06133 184.416 12.6613 183.316 16.3613C177.216 35.8613 171.216 55.2613 165.116 74.7613V74.8613C163.916 78.8613 163.016 79.4613 158.816 79.4613C156.316 79.4613 153.816 79.4613 151.316 79.3613C149.216 79.3613 148.116 78.1613 147.616 76.2613C146.816 73.0613 146.016 69.9613 145.316 66.7613C141.616 51.3613 137.916 36.0613 134.216 20.6613C134.116 20.3613 134.016 19.9613 133.716 19.6613C133.216 21.7613 132.716 23.8613 132.116 26.0613C128.216 42.2613 124.416 58.4613 120.516 74.6613L120.216 75.8613C119.416 78.5613 118.516 79.2613 115.616 79.2613H107.716C104.916 79.2613 103.916 78.5613 103.016 75.8613C101.716 71.7613 100.416 67.5613 99.2161 63.4613C93.7161 45.2613 88.1161 26.9613 82.6161 8.76133C82.2161 7.46133 81.8161 6.06133 81.7161 4.66133C81.5161 3.16133 82.2161 2.46133 83.7161 2.46133H93.1161C95.0161 2.46133 96.3161 3.46133 96.8161 5.26133C97.6161 8.16133 98.4161 11.1613 99.2161 14.0613C103.316 30.1613 107.416 46.3613 111.516 62.4613C111.616 62.8613 111.716 63.1613 111.816 63.5613C111.816 63.4613 111.916 63.4613 111.916 63.4613Z" fill="black"/>
<path d="M131.116 155.861C121.116 155.661 112.516 155.161 104.016 154.061C86.8161 151.861 70.3161 147.361 54.3161 140.561C36.4161 132.961 20.1161 122.961 5.31608 110.361C3.91608 109.161 2.41608 107.961 1.11608 106.561C0.616078 106.061 0.116078 105.261 0.016078 104.561C-0.183922 102.961 1.51608 102.061 3.21608 102.861C4.61608 103.461 5.81608 104.261 7.11608 105.061C26.1161 115.561 46.1161 123.661 67.1161 128.861C76.1161 131.061 85.1161 132.861 94.2161 134.461C100.816 135.561 107.416 136.161 114.116 136.561C121.716 137.061 129.316 137.361 137.016 137.261C143.516 137.161 150.016 136.661 156.516 136.061C176.316 134.261 195.516 130.061 214.316 123.661C220.016 121.761 225.616 119.361 231.316 117.261C232.416 116.861 233.816 116.761 234.916 117.061C237.316 117.661 238.016 120.261 236.516 122.161C236.016 122.861 235.316 123.361 234.616 123.861C222.616 132.561 209.416 139.061 195.516 144.061C183.216 148.461 170.516 151.561 157.616 153.561C152.416 154.361 147.116 154.761 141.916 155.161C138.016 155.661 133.916 155.761 131.116 155.861Z" fill="black"/>
<path d="M60.0161 69.3612C58.7161 70.6612 57.5161 71.9612 56.1161 73.0612C46.6161 81.0612 35.8161 83.3612 24.2161 79.3612C16.0161 76.5612 11.8161 69.9612 10.9161 61.4612C10.3161 55.9612 11.0161 50.6612 14.0161 45.8612C17.9161 39.6612 23.7161 36.2612 30.6161 34.6612C37.0161 33.1612 43.4161 33.5612 49.8161 34.5612C52.8161 35.0612 55.9161 35.6612 59.0161 36.2612C58.9161 31.1612 59.4161 26.1612 57.9161 21.2612C56.4161 16.1612 52.7161 13.6612 47.8161 12.7612C40.4161 11.4612 33.3161 12.3612 26.3161 14.7612C23.9161 15.5612 21.6161 16.4612 19.3161 17.2612C16.9161 18.0612 15.9161 17.3612 15.9161 14.8612V10.6612C15.8161 8.46124 16.8161 6.86124 18.8161 6.06124C22.1161 4.56124 25.5161 3.06124 29.0161 2.06124C37.8161 -0.338764 46.6161 -0.538764 55.5161 1.66124C65.5161 4.16124 70.9161 10.8612 72.5161 20.8612C73.0161 23.7612 73.1161 26.6612 73.1161 29.5612C73.2161 37.3612 73.2161 45.0612 73.1161 52.8612C73.0161 59.1612 73.8161 65.3612 77.2161 70.9612C78.2161 72.5612 77.9161 73.7612 76.4161 74.9612C74.3161 76.4612 72.2161 77.9612 70.0161 79.2612C68.5161 80.1612 66.9161 79.8612 65.7161 78.2612C64.0161 76.0612 62.6161 73.7612 61.1161 71.4612C60.6161 70.7612 60.3161 70.0612 60.0161 69.3612ZM59.1161 45.8612C56.3161 45.3612 53.6161 44.8612 50.9161 44.4612C46.0161 43.8612 41.1161 43.5612 36.2161 44.6612C30.8161 45.8612 27.0161 48.7612 26.0161 54.5612C25.7161 56.3612 25.7161 58.1612 25.9161 59.9612C26.3161 64.9612 29.5161 68.6612 34.4161 69.4612C41.2161 70.6612 47.4161 69.2612 52.9161 64.9612C55.5161 62.9612 57.4161 60.3612 58.2161 57.1612C59.2161 53.5612 59.2161 49.8612 59.1161 45.8612Z" fill="black"/>
<path d="M218.916 81.6617C212.016 81.5617 205.316 80.2617 198.916 77.8617C197.416 77.2617 196.016 76.4617 194.616 75.5617C193.516 74.8617 192.916 73.8617 192.916 72.5617C192.816 70.5617 192.816 68.5617 192.916 66.5617C193.016 64.9617 194.016 64.3617 195.516 64.6617C196.916 65.0617 198.216 65.5617 199.516 66.0617C207.316 69.2617 215.416 70.3617 223.716 69.3617C226.616 69.0617 229.316 68.1617 231.716 66.4617C236.816 62.8617 237.316 53.9617 230.816 50.7617C227.416 49.0617 223.616 47.9617 220.016 46.6617C215.316 44.9617 210.416 43.7617 205.916 41.5617C197.616 37.5617 193.516 30.6617 193.716 21.3617C193.916 15.6617 196.516 10.9617 200.716 7.26168C205.816 2.76168 211.916 0.661684 218.516 0.161684C225.616 -0.438316 232.516 0.661685 239.316 2.96168C239.916 3.16168 240.616 3.46168 241.216 3.76168C244.316 5.06168 246.016 7.16168 245.616 10.7617C245.516 11.9617 245.616 13.1617 245.416 14.3617C245.216 15.8617 244.416 16.3617 242.916 16.0617C242.016 15.8617 241.116 15.4617 240.216 15.1617C232.516 11.8617 224.616 10.9617 216.416 12.4617C215.216 12.6617 214.116 13.0617 213.016 13.5617C206.716 16.5617 205.916 24.9617 211.716 28.8617C214.216 30.5617 217.216 31.6617 220.116 32.6617C225.516 34.5617 231.016 36.1617 236.316 38.1617C241.816 40.2617 246.216 43.8617 248.416 49.5617C251.816 58.1617 249.116 68.2617 241.916 74.2617C236.916 78.3617 231.116 80.2617 224.816 81.0617C222.916 81.4617 220.916 81.4617 218.916 81.6617Z" fill="black"/>
<path d="M242.416 97.2617C247.216 97.4617 251.916 97.8617 256.516 99.3617C259.616 100.362 260.416 101.062 260.416 104.762C260.116 118.762 255.516 131.162 246.116 141.662C245.116 142.762 244.016 143.662 242.916 144.562C242.216 145.062 241.216 145.762 240.516 144.862C240.116 144.362 240.116 143.262 240.416 142.562C242.016 138.062 243.916 133.662 245.416 129.062C246.616 125.162 247.616 121.262 248.416 117.262C248.716 115.662 248.716 113.962 248.616 112.262C248.516 110.462 247.416 109.162 245.716 108.662C243.916 108.162 242.116 107.662 240.216 107.462C234.816 106.862 229.316 107.362 223.916 107.862C220.616 108.162 217.416 108.662 214.116 108.862C213.516 108.862 212.616 108.562 212.316 108.062C212.116 107.662 212.416 106.762 212.716 106.262C213.016 105.762 213.616 105.362 214.116 104.962C219.516 101.362 225.516 99.2617 231.916 98.3617C235.416 97.8617 238.916 97.6617 242.416 97.2617Z" fill="black"/>
</svg>
