<svg width="33" height="33" viewBox="0 0 33 33" fill="none" xmlns="http://www.w3.org/2000/svg">
<path d="M15.125 6.875V1.375H17.875V6.875H15.125ZM24.2687 10.6562L22.3781 8.76562L26.2281 4.8125L28.1531 6.77188L24.2687 10.6562ZM26.125 17.875V15.125H31.625V17.875H26.125ZM15.125 31.625V26.125H17.875V31.625H15.125ZM8.73125 10.5875L4.8125 6.77188L6.77188 4.84688L10.6562 8.73125L8.73125 10.5875ZM26.1937 28.1875L22.3781 24.2344L24.2344 22.3781L28.1531 26.1594L26.1937 28.1875ZM1.375 17.875V15.125H6.875V17.875H1.375ZM6.77188 28.1875L4.84688 26.2281L8.69687 22.3781L9.69375 23.3063L10.6906 24.2687L6.77188 28.1875ZM16.5 24.75C14.2083 24.75 12.2604 23.9479 10.6562 22.3438C9.05208 20.7396 8.25 18.7917 8.25 16.5C8.25 14.2083 9.05208 12.2604 10.6562 10.6562C12.2604 9.05208 14.2083 8.25 16.5 8.25C18.7917 8.25 20.7396 9.05208 22.3438 10.6562C23.9479 12.2604 24.75 14.2083 24.75 16.5C24.75 18.7917 23.9479 20.7396 22.3438 22.3438C20.7396 23.9479 18.7917 24.75 16.5 24.75Z" fill="#1A1A1A"/>
</svg>
