<svg width="21" height="28" viewBox="0 0 21 28" fill="none" xmlns="http://www.w3.org/2000/svg">
<path d="M13.75 27.5C11.8708 27.5 10.0948 27.1388 8.42188 26.4165C6.74896 25.6942 5.28825 24.7088 4.03975 23.4603C2.79125 22.2118 1.80583 20.751 1.0835 19.0781C0.361167 17.4052 0 15.6292 0 13.75C0 11.8479 0.361167 10.0664 1.0835 8.40538C1.80583 6.74438 2.79125 5.28917 4.03975 4.03975C5.28825 2.79033 6.74896 1.80492 8.42188 1.0835C10.0948 0.362084 11.8708 0.000916667 13.75 0C14.9875 0 16.1906 0.160417 17.3594 0.48125C18.5281 0.802083 19.6167 1.26042 20.625 1.85625C18.5396 3.07083 16.8726 4.71533 15.6241 6.78975C14.3756 8.86417 13.7509 11.1843 13.75 13.75C13.7491 16.3158 14.3738 18.6363 15.6241 20.7116C16.8745 22.787 18.5414 24.431 20.625 25.6438C19.6167 26.2396 18.5281 26.6979 17.3594 27.0188C16.1906 27.3396 14.9875 27.5 13.75 27.5Z" fill="#1A1A1A"/>
</svg>
